<svg xmlns="http://www.w3.org/2000/svg" viewBox="0 0 64 64">
  <defs>
    <linearGradient id="g" x1="0" y1="0" x2="1" y2="1">
      <stop offset="0" stop-color="#0f9d58"/>
      <stop offset="1" stop-color="#0f3b2e"/>
    </linearGradient>
  </defs>
  <rect width="64" height="64" rx="14" fill="url(#g)"/>
  <path fill="#ffffff" d="M30.5 20.1c-3.8-2.7-9-4.1-14.5-4.1-.9 0-1.5.7-1.5 1.5v25.4c0 .8.6 1.5 1.5 1.5 5.2 0 10.1 1.4 13.6 3.8.3.2.6.3.9.3V20.1z"/>
  <path fill="#ffffff" d="M33.5 20.1c3.8-2.7 9-4.1 14.5-4.1.9 0 1.5.7 1.5 1.5v25.4c0 .8-.6 1.5-1.5 1.5-5.2 0-10.1 1.4-13.6 3.8-.3.2-.6.3-.9.3V20.1z"/>
</svg>
